<?xml version="1.0" standalone="no"?>
<!DOCTYPE svg PUBLIC "-//W3C//DTD SVG 20010904//EN"
 "http://www.w3.org/TR/2001/REC-SVG-20010904/DTD/svg10.dtd">
<svg version="1.0" xmlns="http://www.w3.org/2000/svg"
 width="50.000000pt" height="50.000000pt" viewBox="0 0 50.000000 50.000000"
 preserveAspectRatio="xMidYMid meet">
<metadata>
Created by potrace 1.16, written by Peter Selinger 2001-2019
</metadata>
<g transform="translate(0.000000,50.000000) scale(0.020000,-0.020000)"
fill="#000000" stroke="none">
<path d="M1120 2480 c0 -13 -7 -20 -20 -20 -11 0 -20 -4 -20 -10 0 -6 -27 -10
-60 -10 -33 0 -60 -4 -60 -10 0 -5 -18 -10 -40 -10 -22 0 -40 -4 -40 -10 0 -5
-13 -10 -30 -10 -16 0 -30 -4 -30 -10 0 -5 -8 -10 -18 -10 -10 0 -24 -9 -32
-20 -8 -11 -22 -20 -32 -20 -10 0 -18 -4 -18 -10 0 -5 -9 -10 -20 -10 -11 0
-20 5 -20 10 0 6 -9 10 -20 10 -11 0 -20 -4 -20 -10 0 -5 9 -10 20 -10 13 0
20 -7 20 -20 0 -16 -7 -20 -30 -20 -16 0 -30 -4 -30 -10 0 -5 -9 -10 -20 -10
-13 0 -20 -7 -20 -20 0 -13 -7 -20 -20 -20 -11 0 -20 -4 -20 -10 0 -5 -7 -10
-16 -10 -9 0 -29 -13 -44 -30 -15 -16 -35 -30 -44 -30 -9 0 -16 -8 -16 -20 0
-13 -7 -20 -20 -20 -13 0 -20 -7 -20 -20 0 -13 -7 -20 -20 -20 -13 0 -20 -7
-20 -20 0 -11 -4 -20 -10 -20 -5 0 -10 -9 -10 -20 0 -11 -4 -20 -10 -20 -5 0
-10 -9 -10 -20 0 -13 -7 -20 -20 -20 -13 0 -20 -7 -20 -20 0 -13 -7 -20 -20
-20 -17 0 -20 -7 -20 -40 0 -33 -3 -40 -20 -40 -13 0 -20 7 -20 20 0 11 -4 20
-10 20 -5 0 -10 -9 -10 -20 0 -11 5 -20 10 -20 6 0 10 -9 10 -20 0 -11 -4 -20
-10 -20 -5 0 -10 -9 -10 -20 0 -11 -4 -20 -10 -20 -5 0 -10 -9 -10 -20 0 -13
-7 -20 -20 -20 -17 0 -20 -7 -20 -40 0 -22 -4 -40 -10 -40 -5 0 -10 -18 -10
-40 0 -22 -4 -40 -10 -40 -5 0 -10 -18 -10 -40 0 -22 -4 -40 -10 -40 -5 0 -10
-18 -10 -40 0 -33 -3 -40 -20 -40 -19 0 -20 -7 -20 -140 0 -133 1 -140 20
-140 13 0 20 -7 20 -20 0 -13 -7 -20 -20 -20 -16 0 -20 -7 -20 -30 0 -23 4
-30 20 -30 13 0 20 -7 20 -20 0 -13 -7 -20 -20 -20 -16 0 -20 -7 -20 -30 0
-29 2 -30 46 -30 26 0 52 -6 60 -14 16 -17 19 -66 4 -66 -5 0 -10 14 -10 30 0
17 -4 30 -10 30 -5 0 -10 -13 -10 -30 0 -23 -4 -30 -20 -30 -17 0 -20 -7 -20
-40 l0 -40 40 0 c38 0 40 -2 40 -30 0 -23 4 -30 20 -30 11 0 20 -4 20 -10 0
-5 9 -10 20 -10 11 0 20 -4 20 -10 0 -5 -18 -10 -40 -10 -22 0 -40 5 -40 10 0
6 -4 10 -10 10 -5 0 -10 -18 -10 -40 l0 -40 50 0 c43 0 50 3 50 20 0 11 5 20
10 20 6 0 10 -9 10 -20 0 -13 7 -20 20 -20 11 0 20 -4 20 -10 0 -5 11 -10 24
-10 31 0 41 -27 27 -77 -17 -59 -15 -63 29 -63 40 0 40 0 40 -39 0 -38 1 -39
40 -46 25 -4 40 -12 40 -21 0 -8 5 -14 10 -14 6 0 10 -9 10 -20 0 -17 7 -20
40 -20 22 0 40 -4 40 -10 0 -5 12 -10 26 -10 40 0 54 -22 54 -84 l0 -56 119 0
c66 0 121 -4 123 -9 2 -5 59 -15 128 -21 69 -7 149 -14 178 -17 36 -3 52 -9
52 -19 0 -10 12 -14 39 -14 22 0 42 -6 45 -12 5 -11 7 -10 12 0 3 6 14 12 25
12 10 0 19 7 19 15 0 10 10 15 29 15 16 0 31 5 33 12 3 8 38 13 101 16 53 2
97 8 97 13 0 5 18 9 40 9 33 0 40 -3 40 -20 0 -13 7 -20 20 -20 13 0 20 7 20
20 0 16 7 20 30 20 28 0 30 2 30 40 l0 40 50 0 c49 0 50 1 50 30 0 20 5 30 15
30 8 0 15 5 15 10 0 6 7 10 15 10 8 0 15 7 15 15 0 8 5 15 10 15 6 0 10 -7 10
-15 0 -12 14 -15 70 -15 l70 0 0 40 0 40 -47 1 c-27 1 -40 3 -30 6 10 3 17 14
17 29 0 18 5 24 21 24 24 0 49 22 49 44 0 9 4 16 9 16 5 0 12 8 14 18 2 9 2 0
0 -20 -4 -33 -2 -38 15 -38 11 0 23 -6 25 -12 4 -10 6 -10 6 0 1 6 11 12 22
12 18 0 20 4 16 32 -3 18 -9 54 -13 81 l-6 47 41 0 c40 0 41 1 41 34 0 19 -6
37 -12 39 -7 3 2 6 20 6 17 1 32 6 32 11 0 6 9 10 20 10 16 0 20 7 20 30 0 17
5 30 10 30 6 0 10 9 10 20 0 11 -4 20 -10 20 -6 0 -10 33 -10 80 0 47 4 80 10
80 6 0 10 23 10 50 0 28 4 50 9 50 12 0 25 331 13 339 -5 3 -11 48 -14 100 -3
61 -9 96 -16 99 -9 3 -12 45 -12 143 l0 139 -70 0 -70 0 0 40 c0 22 -4 40 -10
40 -5 0 -10 18 -10 40 0 34 -3 40 -21 40 -26 0 -49 23 -49 50 0 30 -23 50 -59
50 -28 0 -31 3 -31 30 0 28 -3 30 -35 30 -19 0 -35 5 -35 10 0 6 -9 10 -19 10
-30 0 -51 11 -51 26 0 8 -4 14 -10 14 -5 0 -10 23 -10 50 l0 50 -66 0 c-67 0
-94 13 -94 44 0 9 -8 16 -19 16 -11 0 -22 6 -25 13 -5 10 -7 10 -12 0 -7 -15
-44 -17 -44 -3 0 6 -13 10 -30 10 -16 0 -30 5 -30 10 0 6 -22 10 -50 10 -49 0
-50 1 -50 30 l0 30 -190 0 c-183 0 -190 -1 -190 -20z m341 -556 c113 -75 285
-158 410 -199 56 -18 105 -39 109 -46 5 -8 9 -54 11 -104 l4 -90 -48 0 -47 0
0 -87 c0 -73 -3 -88 -15 -88 -13 0 -15 15 -13 98 l3 97 48 3 47 3 0 59 c0 103
-3 105 -157 148 -10 3 -13 -40 -15 -175 -4 -242 -22 -237 -26 7 l-3 185 -117
57 c-64 32 -148 78 -185 103 -73 48 -93 55 -83 29 3 -9 6 -42 6 -75 l0 -59 35
0 c106 0 233 -95 274 -205 34 -89 27 -200 -16 -283 l-32 -62 32 -62 c27 -51
33 -75 36 -144 3 -77 0 -89 -28 -151 -36 -77 -87 -130 -157 -162 -55 -26 -164
-41 -164 -22 0 6 15 11 33 12 86 1 198 64 247 138 69 106 67 247 -6 353 l-25
36 26 40 c105 158 52 378 -108 457 -29 14 -78 28 -108 32 -30 3 -57 11 -61 17
-10 15 -10 196 0 196 5 0 46 -25 93 -56z m-443 -86 c-3 -63 -3 -63 -35 -66
-37 -4 -46 15 -10 20 18 2 23 10 25 40 l3 37 -113 -57 c-62 -32 -129 -64 -148
-72 l-35 -15 -3 -232 c-1 -144 -6 -233 -12 -233 -6 0 -10 86 -10 229 0 224 0
229 -20 224 -36 -10 -21 15 18 27 47 16 248 112 287 138 50 34 56 29 53 -40z
m-428 -138 c0 -6 -11 -15 -24 -20 -34 -13 -40 -53 -33 -219 6 -157 36 -321 58
-321 5 0 9 72 9 170 0 107 4 170 10 170 6 0 10 -67 10 -181 l0 -180 -27 3
c-31 4 -46 39 -70 168 -19 99 -21 356 -4 388 9 18 20 23 64 31 4 0 7 -4 7 -9z
m723 -15 c1 -6 -92 -11 -260 -13 l-263 -2 0 -65 c0 -37 -4 -65 -10 -65 -11 0
-14 143 -3 153 11 12 533 3 536 -8z m154 -117 c72 -44 80 -138 17 -199 l-35
-34 -140 -3 c-77 -2 -148 0 -157 5 -10 4 47 10 135 13 150 5 152 5 181 33 36
35 46 77 28 121 -23 56 -60 66 -250 66 l-166 0 0 -80 c0 -47 -4 -80 -10 -80
-11 0 -14 162 -3 173 3 4 87 7 186 7 166 0 182 -2 214 -22z m-577 -445 l0
-458 53 -42 52 -43 3 56 c2 45 -1 59 -15 69 -17 13 -17 14 -1 20 30 12 38 -5
38 -83 l0 -77 44 -27 c24 -16 46 -28 50 -28 3 0 6 29 6 65 0 37 4 65 10 65 6
0 10 -33 10 -80 0 -54 -4 -80 -12 -80 -17 0 -95 47 -173 105 -128 95 -253 243
-324 384 -24 46 -25 51 -11 51 5 0 19 -19 31 -42 12 -24 42 -74 68 -112 l46
-70 3 303 c1 200 6 301 12 299 7 -2 11 -112 11 -316 l-1 -313 35 -37 34 -37 1
90 c0 50 0 245 0 435 0 191 2 349 6 353 4 4 11 7 16 7 4 0 8 -206 8 -457z
m383 358 c28 -1 36 -4 31 -13 -5 -10 -4 -10 6 -1 11 10 16 9 27 -5 8 -9 11
-11 8 -4 -9 18 50 -12 61 -30 5 -8 0 -7 -12 2 -17 14 -18 14 -6 -2 7 -9 24
-15 37 -13 19 2 23 -1 16 -13 -12 -21 -25 -23 -176 -28 -71 -3 -134 -9 -138
-14 -5 -4 -4 -17 2 -29 13 -23 7 -23 188 -21 112 1 176 -10 159 -27 -3 -4 2
-15 11 -25 16 -18 16 -19 -7 -10 -14 5 -55 7 -92 4 -56 -3 -68 -8 -74 -24 -3
-11 1 -27 10 -37 14 -15 12 -17 -36 -19 -44 -1 -68 -12 -68 -32 0 -22 25 -29
112 -32 85 -3 100 -6 118 -26 24 -26 10 -30 -16 -4 -10 9 -19 17 -21 17 -6 0
-38 -50 -36 -57 2 -4 -5 -4 -14 -1 -9 4 -14 2 -11 -3 3 -5 -4 -18 -15 -29
l-20 -20 13 25 c13 25 13 25 -8 7 -14 -13 -22 -15 -27 -7 -5 8 -11 5 -21 -7
-13 -17 -14 -17 -7 2 6 17 5 18 -9 7 -13 -10 -18 -10 -24 -1 -5 8 -3 10 7 4 8
-5 11 -4 6 0 -4 5 -28 8 -53 8 -31 -1 -44 3 -41 12 3 6 -1 12 -8 12 -7 0 -11
-6 -8 -14 3 -7 0 -13 -5 -13 -6 0 -13 -8 -15 -17 -3 -10 -5 9 -6 43 -1 48 2
61 14 61 8 0 15 -5 15 -11 0 -6 10 0 22 12 35 35 15 56 -56 60 -40 2 -56 7
-56 17 0 8 -8 18 -17 24 -17 9 -17 10 -1 16 10 4 60 5 113 3 79 -4 98 -2 110
12 12 13 12 20 2 33 -10 13 -35 17 -134 19 -91 2 -119 6 -112 15 6 6 11 27 12
46 1 19 5 33 10 30 4 -2 7 1 7 8 0 9 3 9 14 0 21 -17 56 3 56 32 0 56 7 63 68
60 31 -1 74 -2 95 -2z m713 -133 c-13 -98 -45 -215 -84 -307 -83 -192 -96
-188 -100 27 -2 140 0 162 13 162 13 0 15 -22 15 -142 l1 -143 29 55 c40 77
77 189 95 294 8 49 15 93 15 97 0 5 5 9 11 9 8 0 9 -16 5 -52z m-826 -208 c0
-5 -18 -10 -40 -10 l-40 0 0 -105 0 -105 180 0 180 0 31 28 c38 34 44 92 16
136 -25 37 -54 46 -158 46 -53 0 -89 4 -89 10 0 6 39 10 98 10 78 0 103 -4
129 -20 58 -35 76 -104 44 -168 -32 -64 -70 -73 -276 -70 l-170 3 -3 114 c-1
63 0 121 2 128 6 15 96 18 96 3z m640 -288 c0 -14 -122 -153 -181 -206 -30
-27 -87 -71 -128 -99 -80 -54 -230 -129 -243 -121 -4 3 -8 68 -8 145 l0 139
-35 0 c-19 0 -35 5 -35 10 0 6 20 10 45 10 l44 0 3 -139 3 -140 47 21 47 20 3
72 c4 86 21 90 28 6 l5 -61 77 51 c94 63 189 149 259 235 49 61 69 77 69 57z"/>
</g>
</svg>
